<!-- icon666.com - MILLIONS vector ICONS FREE --><svg id="_x30_1_Trébol" enable-background="new 0 0 512 512" viewBox="0 0 512 512" xmlns="http://www.w3.org/2000/svg"><switch><g><g><g><path d="m354.393 512c-43.202 0-69.422-14.161-85.016-45.916-14.634-29.802-20.878-77.317-20.878-158.88 0-4.143 3.358-7.5 7.5-7.5 4.143 0 7.5 3.357 7.5 7.5.001 148.999 19.539 189.796 90.894 189.796 4.143 0 7.5 3.357 7.5 7.5s-3.357 7.5-7.5 7.5z"></path></g><g><path d="m452.786 138.691c0-36.227-29.368-65.596-65.596-65.596 0-36.227-29.368-65.596-65.596-65.596s-65.594 29.369-65.594 65.597v131.191h131.191c36.227 0 65.595-29.368 65.595-65.596z" fill="#78c6a3"></path><path d="m387.191 211.787h-131.191c-4.142 0-7.5-3.358-7.5-7.5v-131.191c0-40.305 32.791-73.096 73.095-73.096 37.892 0 69.143 28.982 72.749 65.943 36.96 3.606 65.942 34.857 65.942 72.749.001 40.304-32.79 73.095-73.095 73.095zm-123.691-15h123.691c32.034 0 58.096-26.062 58.096-58.095 0-32.034-26.062-58.096-58.096-58.096-4.143 0-7.5-3.358-7.5-7.5 0-32.034-26.061-58.096-58.096-58.096s-58.095 26.062-58.095 58.096z"></path></g><g><path d="m190.404 401.074c-36.227 0-65.596-29.368-65.596-65.596-36.227 0-65.596-29.368-65.596-65.596s29.368-65.596 65.596-65.596h131.192v131.191c0 36.228-29.368 65.597-65.596 65.597z" fill="#78c6a3"></path><path d="m190.404 408.573c-37.892 0-69.142-28.982-72.749-65.942-36.96-3.606-65.942-34.856-65.942-72.748 0-40.305 32.791-73.096 73.095-73.096h131.192c4.143 0 7.5 3.358 7.5 7.5v131.191c0 40.304-32.791 73.095-73.096 73.095zm-65.596-196.786c-32.034 0-58.095 26.062-58.095 58.096 0 32.033 26.062 58.095 58.095 58.095 4.142 0 7.5 3.357 7.5 7.5 0 32.034 26.062 58.096 58.096 58.096s58.096-26.062 58.096-58.096v-123.691z"></path></g><g><path d="m321.595 401.074c36.227 0 65.596-29.368 65.596-65.596 36.227 0 65.596-29.368 65.596-65.596s-29.368-65.596-65.596-65.596h-131.191v131.191c0 36.228 29.368 65.597 65.595 65.597z" fill="#469d89"></path><path d="m321.595 408.573c-40.305 0-73.096-32.791-73.096-73.096v-131.19c0-4.142 3.358-7.5 7.5-7.5h131.191c40.305 0 73.096 32.791 73.096 73.096 0 37.892-28.982 69.142-65.942 72.748-3.606 36.96-34.857 65.942-72.749 65.942zm-58.095-196.786v123.691c0 32.034 26.062 58.096 58.096 58.096s58.096-26.062 58.096-58.096c0-4.143 3.357-7.5 7.5-7.5 32.034 0 58.096-26.062 58.096-58.095 0-32.034-26.062-58.096-58.096-58.096z"></path></g><g><path d="m59.213 138.691c0-36.227 29.368-65.596 65.596-65.596 0-36.227 29.368-65.596 65.596-65.596s65.595 29.369 65.595 65.597v131.191h-131.191c-36.228 0-65.596-29.368-65.596-65.596z" fill="#469d89"></path><path d="m256 211.787h-131.192c-40.305 0-73.095-32.791-73.095-73.095 0-37.892 28.982-69.142 65.942-72.749 3.607-36.961 34.857-65.943 72.749-65.943 40.305 0 73.096 32.791 73.096 73.096v131.191c0 4.142-3.358 7.5-7.5 7.5zm-65.596-196.787c-32.034 0-58.096 26.062-58.096 58.096 0 4.142-3.358 7.5-7.5 7.5-32.034 0-58.095 26.062-58.095 58.096s26.062 58.095 58.095 58.095h123.692v-123.691c0-32.034-26.062-58.096-58.096-58.096z"></path></g><g><path d="m184.026 283.761c-1.919 0-3.839-.732-5.303-2.196-2.929-2.93-2.929-7.678 0-10.607l143.947-143.948c2.93-2.929 7.678-2.929 10.607 0s2.929 7.678 0 10.606l-143.948 143.948c-1.464 1.464-3.383 2.197-5.303 2.197z"></path></g><g><path d="m327.973 283.761c-1.919 0-3.839-.732-5.304-2.196l-143.946-143.949c-2.929-2.929-2.929-7.678 0-10.606 2.929-2.929 7.678-2.929 10.606 0l143.948 143.947c2.929 2.93 2.929 7.678 0 10.607-1.465 1.464-3.385 2.197-5.304 2.197z"></path></g></g></g></switch></svg>